<svg xmlns="http://www.w3.org/2000/svg" viewBox="0 0 174.94 64.25"><defs><style>.cls-1{fill:#fff;}.cls-2{fill:#340000;}.cls-3{fill:#540000;}.cls-4{fill:#b13a00;}.cls-5{fill:#1e0000;}.cls-6{fill:#1a0000;}.cls-7{fill:#320000;}.cls-8{fill:#922000;}.cls-9{fill:#230000;}.cls-10{fill:#b13c00;}.cls-11{fill:#5a0000;}.cls-12{fill:#830e00;}.cls-13{fill:#650000;}.cls-14{fill:#680000;}.cls-15{fill:#730000;}.cls-16{fill:#600000;}.cls-17{fill:#ba4200;}.cls-18{fill:#af3800;}.cls-19{fill:#7b0500;}.cls-20{fill:#2f0000;}.cls-21{fill:#100000;}.cls-22{fill:#370000;}.cls-23{fill:#270000;}.cls-24{fill:#0d0000;}.cls-25{fill:#a63200;}.cls-26{fill:#851000;}.cls-27{fill:#690000;}.cls-28{fill:#952200;}.cls-29{fill:#9c2700;}.cls-30{fill:#500;}.cls-31{fill:#871000;}.cls-32{fill:#570000;}.cls-33{fill:#350000;}.cls-34{fill:#050000;}.cls-35{fill:#8e1700;}.cls-36{fill:#2a0000;}.cls-37{fill:#972400;}.cls-38{fill:#840c00;}.cls-39{fill:#b84300;}.cls-40{fill:#850b00;}.cls-41{fill:#8f1700;}.cls-42{fill:#b53f02;}.cls-43{fill:#510000;}.cls-44{fill:#5b0000;}.cls-45{fill:#630000;}.cls-46{fill:#aa3400;}.cls-47{fill:#700;}.cls-48{fill:#ab3500;}.cls-49{fill:#8d1500;}.cls-50{fill:#992100;}.cls-51{fill:#921b00;}.cls-52{fill:#9b2200;}.cls-53{fill:#992000;}.cls-54{fill:#951c00;}.cls-55{fill:#b64002;}.cls-56{fill:#ae3700;}.cls-57{fill:#9d2800;}.cls-58{fill:#4b0000;}.cls-59{fill:#810700;}.cls-60{fill:#4a0000;}.cls-61{fill:#430000;}.cls-62{fill:#af3600;}.cls-63{fill:#a02700;}.cls-64{fill:#810b00;}.cls-65{fill:#a72f00;}.cls-66{fill:#9a1f00;}.cls-67{fill:#8e1400;}.cls-68{fill:#911900;}.cls-69{fill:#4f0000;}.cls-70{fill:#7f0800;}.cls-71{fill:#8a1100;}.cls-72{fill:#780200;}.cls-73{fill:#080000;}.cls-74{fill:#a22a00;}.cls-75{fill:#200000;}.cls-76{fill:#a52a00;}</style></defs><title>logoMnemonicL_1</title><g id="Capa_2" data-name="Capa 2"><g id="Capa_1-2" data-name="Capa 1"><path class="cls-1" d="M91.16,11C92.07,7.84,93.43.92,96,.92c3.13,0,.71,14.8.16,19-.41,3.21-1.64,7.83-.41,10.91.59-.51,1-1.63,1.8-1.67,0,1.45.25,2.85-1.4,3.55C93,34,92.09,30.39,92,28.06a67.71,67.71,0,0,1,.76-9c.14-1.34,1-10,1.14-10.22-.9,1.81-2.07,6.64-3.21,6.71C89,15.7,88,12.5,87.46,10.92c-1.39,2.23-2,15-3.15,15.45-4.81,1.67-.93-23.53,3.33-24C89.31,2.34,90.08,7.08,91.16,11Z"/><path class="cls-1" d="M133.52,10.94a3.2,3.2,0,0,0-3-.56c-.94.42-1.85,2.9-2.73,3-.21-2.21-1.66-3.82-3.9-2.25-.56.39-2.45,4.2-2.83,4,.54-1.72,1.76-4.89-1.38-5-2.4-.08-2.31,4.76-2.7,6.81a20.22,20.22,0,0,1-3.59,8.37c-.81,1.06-1.12,1.85-2.08.61-.52-.66-.64-3.37-.46-4,.41-1.5.24-.71,1.48-1.52a4.78,4.78,0,0,0,2.43-2.72c.62-2.16.21-6.46-2.79-6.26-4.67.3-4.33,13.19-6,12.93-.27-2.06.35-4.22.81-6.21.39-1.65,2-5.07,1.58-6.78a2.21,2.21,0,0,0-2.58-1.78c-1.67.38-2.48,3.47-3.53,4.67A2.12,2.12,0,0,0,99.81,13c-1.65.37-1.57,1.91-1.86,3.46-.41,2.27-1.83,8-.66,10.05.63,1.07,2.37,1.52,3.12.49.55-.77.27-3.91.38-4.8a20.07,20.07,0,0,1,3.27-8.7c.52,1.51-1.28,5.3-1.48,7-.21,1.84-.67,4.44.61,5.91,2.27,2.62,3.53-.2,4.38-2.07.21,0,1.47,2.49,2,2.94a3,3,0,0,0,3.08.89c2.23-.7,2.52-3.56,3.76-5.17,0,1.33-.12,3.29,1.85,3.41,1.67.11,1.4-.9,1.54-2.2.36-3.5.85-7.8,3.85-10.22,0,1.8-3.09,15.56,1.54,13.72,1.68-.67,1.32-5.28,1.52-6.87.39-3.25.5-6.74,3.45-8.8-.58,5.71-3.13,12.51-2.49,18.26.19,1.79,1.38,3.77,3.37,3.56,1-.11,3.67-2.6,2.46-3.45a14.42,14.42,0,0,0-2.26,1.82c0-4.23,1.07-8.39,1.72-12.54C133.23,18,135,12.2,133.52,10.94ZM111,19c0-1,.77-6.81,1.83-6.54s.45,4.12.12,4.82C112.91,17.32,111,20,111,19Z"/><path class="cls-1" d="M160.08,7.65c0-1.77.11-3,2.25-3.14,1.59-.1,2.23.42,2.49,1.84.31,1.7-1.57,4.31-2.51,4.44C161.63,10.88,160.11,9.15,160.08,7.65Z"/><path class="cls-1" d="M174.64,12.93c-1.33-1.46-2.23-1.2-3.89-.67a7.85,7.85,0,0,0-4.43,3.16,20.21,20.21,0,0,0-3.32,6.7c-.49,2,.3,4.1-1.43,5.28a31.43,31.43,0,0,1,.4-7.75c.45-2.25,2.46-6.3-.86-7.1-2.78-.67-2.64,4.15-3,6.31-.62,3.45-.84,6.07-3,9-1-.42.94-10.7,1-12,.05-1.53.15-2.64-1.23-3.4-2.28-1.27-3.1.79-4.23,2.22-.24-1.49-2.49-3.36-3.87-2.12-.76.68-.42,2.72-1,3.57a6.49,6.49,0,0,1-2.55,2.05C142.63,16,144.44,14,143,12c-1-1.46-3.35-2.47-4.89-1.1s-.84,4.31-1.7,6c-1.08,2.2-2.79,4.4-2.86,7-.08,3.23,2.92,6.38,5.9,3.89,1.46-1.22,2-3.4,2.5-5.14.18-.61.29-2.05.81-2.56s1.85-.52,2.52-1c1.7,2.24-3,10.87,1.31,11.29,3.18.3,2-6.3,2.29-8.69a14.24,14.24,0,0,1,3.55-7.41c.69,1.22-.54,4.87-.7,6.26-.28,2.55-.94,5.82-.46,8.35.29,1.54,1.36,3.67,3.38,2.4,1.09-.68,2.48-4.75,3.11-5.89.21,1.88.37,4.22,2.7,4.52,2.15.28,1.55-1.08,2.34-2.28,1.72,1.15,2.78,3.36,5.31,1.78.51-.32,3-4.55,2.38-4.82-1.22-.51-4.19,6.37-4.5,1.72-.21-3.24,2.41-7.4,4.35-9.82C172.57,22.31,176,14.41,174.64,12.93Zm-35.1-1.45c.61-.89,2.17.91,2.53,1.4-.9.28-1.95.29-2.88.51A3.71,3.71,0,0,1,139.54,11.48ZM141,20.36c-.84,2.27-1.65,4.88-3.48,6.56-1.17-1.35.14-4,.77-5.37.26-.57.91-2.38,1.46-2.5S141.22,19.79,141,20.36Zm.61-2.24c-1.54-.94-.13-1.87.61-3.07A9.16,9.16,0,0,1,141.61,18.12Z"/></g><g id="content"><polygon class="cls-2" points="0 11.55 12.63 4.02 12.9 5.97 2.79 13.15 0 11.55"/><path class="cls-3" d="M18.55,3.7C18.55,3.91,12.9,6,12.9,6L12.63,4Z"/><path class="cls-4" d="M20.3.81c-.14.21,6,1.32,6,1.32l-3.56,4L18.48,3.74,12.63,4Z"/><polygon class="cls-5" points="15.9 14.34 21.9 9.46 18.48 3.74 15.9 14.34"/><polygon class="cls-6" points="22.74 6.11 21.9 9.46 18.48 3.74 22.74 6.11"/><polygon class="cls-7" points="10.09 15.91 15.9 14.34 18.48 3.74 10.09 15.91"/><polygon class="cls-8" points="2.79 13.15 12.9 5.97 18.48 3.74 10.11 15.87 2.79 13.15"/><polygon class="cls-9" points="6.84 19.78 10.11 15.87 2.79 13.15 6.84 19.78"/><polygon class="cls-10" points="26.3 2.13 27.87 4.35 22.74 6.11 26.3 2.13"/><polygon class="cls-11" points="21.58 13.57 27.87 4.35 22.89 5.94 21.9 9.46 21.58 13.57"/><polygon class="cls-12" points="21.54 14.46 21.58 13.57 21.9 9.46 15.9 14.34 21.54 14.46"/><polygon class="cls-13" points="10.27 25.82 10.11 15.87 6.84 19.78 10.27 25.82"/><polygon class="cls-14" points="10.27 25.82 15.9 14.34 10.11 15.87 10.27 25.82"/><polygon class="cls-15" points="17.63 32.43 15.9 14.34 10.27 25.82 17.63 32.43"/><polygon class="cls-16" points="25.4 22.32 21.54 14.46 15.9 14.34 17.63 32.43 25.4 22.32"/><polygon class="cls-17" points="34.17 0 26.36 2 27.86 4.37 34.23 10.01 34.17 0"/><path class="cls-18" d="M21.54,14.46s0-.66,0-.89,6.29-9.22,6.29-9.22L34.2,10,22.84,12.5Z"/><polygon class="cls-19" points="27.77 14.92 34.2 10.03 22.84 12.5 27.77 14.92"/><polygon class="cls-20" points="21.54 14.46 24.25 15.38 22.84 12.5 21.54 14.46"/><polygon class="cls-21" points="27.77 14.92 22.84 12.5 24.25 15.38 27.77 14.92"/><polygon class="cls-22" points="21.54 14.46 24.25 15.38 25.4 22.32 21.48 14.46 21.54 14.46"/><polygon class="cls-7" points="27.77 14.92 24.25 15.38 26.08 17.51 27.77 14.92"/><polygon class="cls-23" points="26.09 24.66 25.4 22.32 24.26 15.38 26.08 17.51 27.25 21.46 26.09 24.66"/><polygon class="cls-24" points="27.77 14.92 27.25 21.46 26.08 17.51 27.77 14.92"/><polygon class="cls-25" points="34.2 10.03 34.2 15.49 27.77 14.92 34.2 10.03"/><polygon class="cls-26" points="28.3 22.33 27.77 14.92 34.2 15.49 28.3 22.33"/><polygon class="cls-27" points="27.25 21.46 28.3 22.33 27.77 14.92 27.25 21.46"/><polygon class="cls-28" points="34.2 23.43 34.2 15.49 28.3 22.33 28.52 22.75 34.2 23.43"/><polygon class="cls-29" points="24.24 30.52 24.77 30.05 28.52 22.75 28.3 22.33 27.25 21.46 26.09 24.66 24.24 30.52"/><polygon class="cls-30" points="34.2 34.92 34.2 34.7 34.2 23.43 28.52 22.75 34.2 34.92"/><polygon class="cls-31" points="24.77 30.05 29.07 33.12 34.2 34.7 28.52 22.75 24.77 30.05"/><path d="M24.24,30.52s3.68,3.13,3.73,3.09,1.09-.49,1.09-.49L24.77,30Z"/><polygon class="cls-32" points="34.2 43.38 34.2 34.7 29.07 33.12 34.2 43.38"/><polygon class="cls-33" points="30.29 47.7 34.2 43.38 29.07 33.12 30.29 47.7"/><path class="cls-6" d="M34.2,58V43.38s-3.86,4.24-3.91,4.32.62,8.45.62,8.45Z"/><polygon class="cls-34" points="34.2 64.25 34.2 57.99 30.91 56.15 31.02 57.53 32.24 57.98 31.32 63.62 34.2 64.25"/><polygon class="cls-33" points="24.07 41.38 27.97 33.61 25.09 31.43 24.07 41.38"/><polygon points="25.27 42.27 24.07 41.38 27.97 33.61 25.27 42.27"/><polygon class="cls-35" points="22.33 39.88 24.07 41.38 25.09 31.43 22.33 39.88"/><polygon class="cls-36" points="22.8 49.21 24.07 41.38 25.27 42.27 23.76 47.13 22.8 49.21"/><polygon class="cls-37" points="22.33 39.88 24.07 41.38 22.8 49.21 21.11 48.48 22.33 39.88"/><polygon class="cls-38" points="22.57 55.34 23.76 47.13 22.8 49.21 22.57 55.34"/><polygon class="cls-39" points="21.11 48.48 22.8 49.21 22.57 55.34 21.11 48.48"/><polygon class="cls-40" points="68.4 11.55 55.77 4.02 55.5 5.97 65.61 13.15 68.4 11.55"/><path class="cls-41" d="M49.85,3.7C49.85,3.91,55.5,6,55.5,6L55.78,4Z"/><path class="cls-42" d="M48.1.81c.14.21-6,1.32-6,1.32l3.56,4,4.26-2.37L55.78,4Z"/><polygon class="cls-43" points="52.5 14.34 46.5 9.46 49.92 3.74 52.5 14.34"/><polygon class="cls-44" points="45.66 6.11 46.5 9.46 49.92 3.74 45.66 6.11"/><polygon class="cls-45" points="58.31 15.91 52.5 14.34 49.92 3.74 58.31 15.91"/><polygon class="cls-46" points="65.61 13.15 55.5 5.97 49.92 3.74 58.29 15.87 65.61 13.15"/><polygon class="cls-47" points="61.56 19.78 58.29 15.87 65.61 13.15 61.56 19.78"/><polygon class="cls-48" points="42.15 2.11 40.53 4.3 45.62 6.16 42.15 2.11"/><polygon class="cls-49" points="46.82 13.57 40.53 4.35 45.51 5.94 46.5 9.46 46.82 13.57"/><polygon class="cls-50" points="46.86 14.46 46.82 13.57 46.5 9.46 52.5 14.34 46.86 14.46"/><polygon class="cls-51" points="58.13 25.82 58.29 15.87 61.56 19.78 58.13 25.82"/><polygon class="cls-52" points="58.13 25.82 52.5 14.34 58.29 15.87 58.13 25.82"/><polygon class="cls-53" points="50.77 32.43 52.5 14.34 58.13 25.82 50.77 32.43"/><polygon class="cls-54" points="43 22.32 46.86 14.46 52.5 14.34 50.77 32.43 43 22.32"/><polygon class="cls-55" points="34.23 0 42.04 2 40.54 4.37 34.17 10.01 34.23 0"/><path class="cls-56" d="M46.86,14.46s0-.66,0-.89-6.29-9.22-6.29-9.22L34.2,10,45.56,12.5Z"/><polygon class="cls-57" points="40.63 14.92 34.2 10.03 45.56 12.5 40.63 14.92"/><polygon class="cls-15" points="46.86 14.46 44.15 15.38 45.56 12.5 46.86 14.46"/><polygon class="cls-58" points="40.63 14.92 45.56 12.5 44.15 15.38 40.63 14.92"/><polygon class="cls-59" points="46.86 14.46 44.15 15.38 43 22.32 46.92 14.46 46.86 14.46"/><polygon class="cls-60" points="40.63 14.92 44.15 15.38 42.32 17.51 40.63 14.92"/><polygon class="cls-15" points="42.32 24.66 43.01 22.32 44.14 15.38 42.32 17.51 41.15 21.46 42.32 24.66"/><polygon class="cls-61" points="40.63 14.92 41.15 21.46 42.32 17.51 40.63 14.92"/><polygon class="cls-62" points="34.2 10.03 34.2 15.49 40.63 14.92 34.2 10.03"/><polygon class="cls-63" points="40.1 22.33 40.63 14.92 34.2 15.49 40.1 22.33"/><polygon class="cls-64" points="41.15 21.46 40.1 22.33 40.63 14.92 41.15 21.46"/><polygon class="cls-65" points="34.2 23.43 34.2 15.49 40.1 22.33 39.88 22.75 34.2 23.43"/><polygon class="cls-66" points="44.16 30.52 43.63 30.05 39.88 22.75 40.1 22.33 41.15 21.46 42.31 24.66 44.16 30.52"/><polygon class="cls-67" points="34.2 34.92 34.2 34.7 34.2 23.43 39.88 22.75 34.2 34.92"/><polygon class="cls-68" points="43.63 30.05 39.34 33.12 34.2 34.7 39.88 22.75 43.63 30.05"/><path class="cls-69" d="M44.16,30.52s-3.68,3.13-3.73,3.09-1.09-.49-1.09-.49L43.63,30Z"/><polygon class="cls-70" points="34.2 43.38 34.2 34.7 39.34 33.12 34.2 43.38"/><polygon class="cls-71" points="38.11 47.7 34.2 43.38 39.34 33.12 38.11 47.7"/><path class="cls-14" d="M34.2,58V43.38s3.86,4.24,3.91,4.32-.62,8.45-.62,8.45Z"/><polygon class="cls-61" points="34.2 64.25 34.2 57.99 37.49 56.15 37.05 62.46 34.2 64.25"/><polygon class="cls-72" points="44.33 41.38 40.43 33.61 43.31 31.43 44.33 41.38"/><polygon class="cls-73" points="43.13 42.27 44.33 41.38 40.43 33.61 43.13 42.27"/><polygon class="cls-74" points="46.07 39.88 44.33 41.38 43.31 31.43 46.07 39.88"/><polygon class="cls-75" points="45.6 49.21 44.33 41.38 43.13 42.27 44.64 47.13 45.6 49.21"/><polygon class="cls-76" points="46.07 39.88 44.33 41.38 45.6 49.21 47.29 48.48 46.07 39.88"/><polygon class="cls-27" points="45.83 55.34 44.64 47.13 45.6 49.21 45.83 55.34"/><polygon class="cls-52" points="47.29 48.48 45.6 49.21 45.83 55.34 47.29 48.48"/></g></g></svg>