<svg xmlns="http://www.w3.org/2000/svg" viewBox="0 0 255.4 233.26"><defs><style>.cls-1{fill:#ccc;}.cls-2{fill:#340000;}.cls-3{fill:#540000;}.cls-4{fill:#b13a00;}.cls-5{fill:#1e0000;}.cls-6{fill:#1a0000;}.cls-7{fill:#320000;}.cls-8{fill:#922000;}.cls-9{fill:#230000;}.cls-10{fill:#b13c00;}.cls-11{fill:#5a0000;}.cls-12{fill:#830e00;}.cls-13{fill:#650000;}.cls-14{fill:#680000;}.cls-15{fill:#730000;}.cls-16{fill:#600000;}.cls-17{fill:#ba4200;}.cls-18{fill:#af3800;}.cls-19{fill:#7b0500;}.cls-20{fill:#2f0000;}.cls-21{fill:#100000;}.cls-22{fill:#370000;}.cls-23{fill:#270000;}.cls-24{fill:#0d0000;}.cls-25{fill:#a63200;}.cls-26{fill:#851000;}.cls-27{fill:#690000;}.cls-28{fill:#952200;}.cls-29{fill:#9c2700;}.cls-30{fill:#500;}.cls-31{fill:#871000;}.cls-32{fill:#570000;}.cls-33{fill:#350000;}.cls-34{fill:#050000;}.cls-35{fill:#8e1700;}.cls-36{fill:#2a0000;}.cls-37{fill:#972400;}.cls-38{fill:#840c00;}.cls-39{fill:#b84300;}.cls-40{fill:#850b00;}.cls-41{fill:#8f1700;}.cls-42{fill:#b53f02;}.cls-43{fill:#510000;}.cls-44{fill:#5b0000;}.cls-45{fill:#630000;}.cls-46{fill:#aa3400;}.cls-47{fill:#700;}.cls-48{fill:#ab3500;}.cls-49{fill:#8d1500;}.cls-50{fill:#992100;}.cls-51{fill:#921b00;}.cls-52{fill:#9b2200;}.cls-53{fill:#992000;}.cls-54{fill:#951c00;}.cls-55{fill:#b64002;}.cls-56{fill:#ae3700;}.cls-57{fill:#9d2800;}.cls-58{fill:#4b0000;}.cls-59{fill:#810700;}.cls-60{fill:#4a0000;}.cls-61{fill:#430000;}.cls-62{fill:#af3600;}.cls-63{fill:#a02700;}.cls-64{fill:#810b00;}.cls-65{fill:#a72f00;}.cls-66{fill:#9a1f00;}.cls-67{fill:#8e1400;}.cls-68{fill:#911900;}.cls-69{fill:#4f0000;}.cls-70{fill:#7f0800;}.cls-71{fill:#8a1100;}.cls-72{fill:#780200;}.cls-73{fill:#080000;}.cls-74{fill:#a22a00;}.cls-75{fill:#200000;}.cls-76{fill:#a52a00;}.cls-77{fill:#fff;}</style></defs><title>logoMnemonic</title><g id="Capa_2" data-name="Capa 2"><g id="content"><path class="cls-1" d="M229,87.31,228,85l-.25-.57-.28-.56-.56-1.13L225.8,80.5l-.28-.56-.31-.55-.62-1.1-1.23-2.19c-.2-.37-.42-.72-.64-1.08L222.05,74l-1.34-2.14a104.73,104.73,0,0,0-45.63-38.71A104.31,104.31,0,0,0,47,69.69a108.73,108.73,0,0,0-6.16,10.2H50.6q1.59-2.82,3.36-5.54a100.38,100.38,0,0,1,43.6-37,99.83,99.83,0,0,1,138.08,71.55,101.76,101.76,0,0,1,2,19.93A104.42,104.42,0,0,0,230,89.62C229.74,88.83,229.36,88.08,229,87.31Z"/><path class="cls-1" d="M235.64,148.72A99.88,99.88,0,0,1,66,198.29a100.9,100.9,0,0,1-15.86-21.47H40.4a104.41,104.41,0,0,0,115.34,54,103.67,103.67,0,0,0,19.34-6.32,104.41,104.41,0,0,0,62.56-95.67A101.76,101.76,0,0,1,235.64,148.72Z"/><polygon class="cls-2" points="68.32 22.89 93.34 7.96 93.9 11.83 73.85 26.07 68.32 22.89"/><path class="cls-3" d="M105.08,7.33c0,.41-11.18,4.5-11.18,4.5L93.34,8Z"/><path class="cls-4" d="M108.55,1.6c-.28.42,11.89,2.63,11.89,2.63l-7,7.88L105,7.41,93.34,8Z"/><polygon class="cls-5" points="99.84 28.42 111.73 18.74 104.95 7.41 99.84 28.42"/><polygon class="cls-6" points="113.39 12.11 111.73 18.74 104.95 7.41 113.39 12.11"/><polygon class="cls-7" points="88.31 31.54 99.84 28.42 104.95 7.41 88.31 31.54"/><polygon class="cls-8" points="73.85 26.07 93.9 11.83 104.95 7.41 88.37 31.46 73.85 26.07"/><polygon class="cls-9" points="81.87 39.2 88.37 31.46 73.85 26.07 81.87 39.2"/><polygon class="cls-10" points="120.44 4.23 123.55 8.63 113.39 12.11 120.44 4.23"/><polygon class="cls-11" points="111.09 26.9 123.55 8.63 113.68 11.77 111.73 18.74 111.09 26.9"/><polygon class="cls-12" points="111 28.65 111.09 26.9 111.73 18.74 99.84 28.42 111 28.65"/><polygon class="cls-13" points="88.67 51.17 88.37 31.46 81.87 39.2 88.67 51.17"/><polygon class="cls-14" points="88.67 51.17 99.84 28.42 88.37 31.46 88.67 51.17"/><polygon class="cls-15" points="103.25 64.27 99.84 28.42 88.67 51.17 103.25 64.27"/><polygon class="cls-16" points="118.66 44.25 111 28.65 99.84 28.42 103.25 64.27 118.66 44.25"/><polygon class="cls-17" points="136.05 0 120.57 3.96 123.55 8.65 136.15 19.84 136.05 0"/><path class="cls-18" d="M111,28.65s.1-1.29.1-1.75S123.55,8.63,123.55,8.63L136.1,19.88l-22.51,4.9Z"/><polygon class="cls-19" points="123.37 29.57 136.1 19.88 113.59 24.78 123.37 29.57"/><polygon class="cls-20" points="111 28.65 116.39 30.48 113.59 24.78 111 28.65"/><polygon class="cls-21" points="123.37 29.57 113.59 24.78 116.39 30.48 123.37 29.57"/><polygon class="cls-22" points="111 28.65 116.39 30.48 118.66 44.25 110.88 28.66 111 28.65"/><polygon class="cls-7" points="123.37 29.57 116.39 30.48 120 34.7 123.37 29.57"/><polygon class="cls-23" points="120.02 48.87 118.66 44.24 116.4 30.48 120.01 34.7 122.33 42.54 120.02 48.87"/><polygon class="cls-24" points="123.37 29.57 122.34 42.53 120 34.7 123.37 29.57"/><polygon class="cls-25" points="136.1 19.88 136.1 30.71 123.37 29.57 136.1 19.88"/><polygon class="cls-26" points="124.41 44.26 123.37 29.57 136.1 30.71 124.41 44.26"/><polygon class="cls-27" points="122.34 42.53 124.41 44.26 123.37 29.57 122.34 42.53"/><polygon class="cls-28" points="136.1 46.44 136.1 30.71 124.41 44.26 124.84 45.08 136.1 46.44"/><polygon class="cls-29" points="116.37 60.49 117.42 59.55 124.84 45.08 124.41 44.26 122.34 42.53 120.03 48.87 116.37 60.49"/><polygon class="cls-30" points="136.1 69.2 136.1 68.78 136.1 46.44 124.84 45.08 136.1 69.2"/><polygon class="cls-31" points="117.42 59.55 125.92 65.64 136.1 68.78 124.84 45.08 117.42 59.55"/><path d="M116.37,60.49s7.29,6.19,7.39,6.13,2.16-1,2.16-1l-8.5-6.09Z"/><polygon class="cls-32" points="136.1 85.98 136.1 68.78 125.92 65.64 136.1 85.98"/><polygon class="cls-33" points="128.35 94.54 136.1 85.98 125.92 65.64 128.35 94.54"/><path class="cls-6" d="M136.1,114.93V86s-7.65,8.4-7.75,8.56,1.23,16.74,1.23,16.74Z"/><polygon class="cls-34" points="136.1 127.34 136.1 114.93 129.58 111.28 129.8 114.01 132.21 114.92 130.4 126.09 136.1 127.34"/><polygon class="cls-33" points="116.03 82.02 123.76 66.62 118.04 62.29 116.03 82.02"/><polygon points="118.4 83.77 116.03 82.02 123.76 66.62 118.4 83.77"/><polygon class="cls-35" points="112.58 79.03 116.03 82.02 118.04 62.29 112.58 79.03"/><polygon class="cls-36" points="113.51 97.52 116.03 82.02 118.4 83.77 115.42 93.4 113.51 97.52"/><polygon class="cls-37" points="112.58 79.03 116.03 82.02 113.51 97.52 110.16 96.08 112.58 79.03"/><polygon class="cls-38" points="113.05 109.68 115.42 93.4 113.51 97.52 113.05 109.68"/><polygon class="cls-39" points="110.16 96.08 113.51 97.52 113.05 109.68 110.16 96.08"/><polygon class="cls-40" points="203.88 22.89 178.86 7.96 178.31 11.83 198.35 26.07 203.88 22.89"/><path class="cls-41" d="M167.12,7.33c0,.41,11.19,4.5,11.19,4.5L178.86,8Z"/><path class="cls-42" d="M163.66,1.6c.27.42-11.89,2.63-11.89,2.63l7,7.88,8.43-4.7L178.86,8Z"/><polygon class="cls-43" points="172.37 28.42 160.48 18.74 167.25 7.41 172.37 28.42"/><polygon class="cls-44" points="158.82 12.11 160.48 18.74 167.25 7.41 158.82 12.11"/><polygon class="cls-45" points="183.89 31.54 172.37 28.42 167.25 7.41 183.89 31.54"/><polygon class="cls-46" points="198.35 26.07 178.31 11.83 167.25 7.41 183.84 31.46 198.35 26.07"/><polygon class="cls-47" points="190.34 39.2 183.84 31.46 198.35 26.07 190.34 39.2"/><polygon class="cls-48" points="151.85 4.19 148.64 8.52 158.73 12.21 151.85 4.19"/><polygon class="cls-49" points="161.11 26.9 148.65 8.63 158.53 11.77 160.48 18.74 161.11 26.9"/><polygon class="cls-50" points="161.2 28.65 161.11 26.9 160.48 18.74 172.37 28.42 161.2 28.65"/><polygon class="cls-51" points="183.53 51.17 183.84 31.46 190.34 39.2 183.53 51.17"/><polygon class="cls-52" points="183.53 51.17 172.37 28.42 183.84 31.46 183.53 51.17"/><polygon class="cls-53" points="168.95 64.27 172.37 28.42 183.53 51.17 168.95 64.27"/><polygon class="cls-54" points="153.54 44.25 161.2 28.65 172.37 28.42 168.95 64.27 153.54 44.25"/><polygon class="cls-55" points="136.15 0 151.64 3.96 148.66 8.65 136.05 19.84 136.15 0"/><path class="cls-56" d="M161.2,28.65s-.09-1.29-.09-1.75S148.65,8.63,148.65,8.63L136.1,19.88l22.52,4.9Z"/><polygon class="cls-57" points="148.84 29.57 136.1 19.88 158.62 24.78 148.84 29.57"/><polygon class="cls-15" points="161.2 28.65 155.82 30.48 158.62 24.78 161.2 28.65"/><polygon class="cls-58" points="148.84 29.57 158.62 24.78 155.82 30.48 148.84 29.57"/><polygon class="cls-59" points="161.2 28.65 155.82 30.48 153.54 44.25 161.32 28.66 161.2 28.65"/><polygon class="cls-60" points="148.84 29.57 155.82 30.48 152.2 34.7 148.84 29.57"/><polygon class="cls-15" points="152.19 48.87 153.56 44.24 155.79 30.47 152.19 34.7 149.88 42.54 152.19 48.87"/><polygon class="cls-61" points="148.84 29.57 149.87 42.53 152.2 34.7 148.84 29.57"/><polygon class="cls-62" points="136.1 19.88 136.1 30.71 148.84 29.57 136.1 19.88"/><polygon class="cls-63" points="147.79 44.26 148.84 29.57 136.1 30.71 147.79 44.26"/><polygon class="cls-64" points="149.87 42.53 147.79 44.26 148.84 29.57 149.87 42.53"/><polygon class="cls-65" points="136.1 46.44 136.1 30.71 147.79 44.26 147.36 45.08 136.1 46.44"/><polygon class="cls-66" points="155.84 60.49 154.79 59.55 147.36 45.08 147.79 44.26 149.87 42.53 152.17 48.87 155.84 60.49"/><polygon class="cls-67" points="136.1 69.2 136.1 68.78 136.1 46.44 147.36 45.08 136.1 69.2"/><polygon class="cls-68" points="154.79 59.55 146.28 65.64 136.1 68.78 147.36 45.08 154.79 59.55"/><path class="cls-69" d="M155.84,60.49s-7.3,6.19-7.4,6.13-2.16-1-2.16-1l8.51-6.09Z"/><polygon class="cls-70" points="136.1 85.98 136.1 68.78 146.28 65.64 136.1 85.98"/><polygon class="cls-71" points="143.86 94.54 136.1 85.98 146.28 65.64 143.86 94.54"/><path class="cls-14" d="M136.1,114.93V86s7.66,8.4,7.76,8.56-1.24,16.74-1.24,16.74Z"/><polygon class="cls-61" points="136.1 127.34 136.1 114.93 142.62 111.28 141.75 123.8 136.1 127.34"/><polygon class="cls-72" points="156.17 82.02 148.44 66.62 154.16 62.29 156.17 82.02"/><polygon class="cls-73" points="153.8 83.77 156.17 82.02 148.44 66.62 153.8 83.77"/><polygon class="cls-74" points="159.62 79.03 156.17 82.02 154.16 62.29 159.62 79.03"/><polygon class="cls-75" points="158.69 97.52 156.17 82.02 153.8 83.77 156.79 93.4 158.69 97.52"/><polygon class="cls-76" points="159.62 79.03 156.17 82.02 158.69 97.52 162.04 96.08 159.62 79.03"/><polygon class="cls-27" points="159.16 109.68 156.79 93.4 158.69 97.52 159.16 109.68"/><polygon class="cls-52" points="162.04 96.08 158.69 97.52 159.16 109.68 162.04 96.08"/><path class="cls-77" d="M25,112c2.51-8.79,6.24-27.82,13.27-27.82,8.63,0,2,40.72.46,52.27-1.14,8.82-4.52,21.52-1.14,30,1.62-1.4,2.71-4.49,5-4.6.1,4,.67,7.86-3.87,9.77-8.72,3.66-11.13-6.38-11.34-12.78-.28-8.19,1.24-16.55,2.08-24.67.39-3.7,2.84-27.52,3.14-28.14-2.47,5-5.7,18.27-8.83,18.49-4.78.32-7.37-8.48-8.91-12.82-3.83,6.11-5.39,41.34-8.66,42.48-13.24,4.6-2.57-64.72,9.15-65.91C19.85,88.09,22,101.12,25,112Z"/><path class="cls-77" d="M141.47,111.76c-1.94-1.62-5.65-2.72-8.29-1.55s-5.07,8-7.52,8.26c-.56-6.1-4.56-10.51-10.72-6.2-1.55,1.08-6.74,11.54-7.77,11.06,1.46-4.72,4.84-13.46-3.8-13.73-6.61-.2-6.37,13.11-7.43,18.73-1.52,8-4.84,16.49-9.87,23-2.24,2.92-3.08,5.09-5.73,1.7-1.42-1.83-1.77-9.27-1.27-11.09,1.14-4.14.68-2,4.08-4.2,3.13-2.06,5.59-3.7,6.67-7.46,1.71-6,.58-17.78-7.67-17.24-12.84.84-11.9,36.29-16.57,35.57-.76-5.66,1-11.61,2.23-17.07,1.08-4.54,5.47-14,4.35-18.65-.74-3.07-3.62-5.72-7.12-4.91-4.58,1.06-6.82,9.55-9.7,12.87-1.32-2.56-3.66-4.1-6.61-3.45-4.53,1-4.32,5.26-5.1,9.53-1.14,6.23-5.05,22.11-1.82,27.63,1.72,2.94,6.51,4.19,8.58,1.34,1.52-2.11.75-10.75,1-13.21a55.49,55.49,0,0,1,9-23.92C61.87,123,56.9,133.38,56.36,138c-.58,5.07-1.86,12.22,1.67,16.27,6.26,7.19,9.7-.56,12.06-5.69.57,0,4,6.83,5.51,8.08,2.62,2.21,5.08,3.49,8.47,2.44,6.16-1.91,7-9.78,10.37-14.2,0,3.65-.34,9,5.07,9.37,4.61.29,3.86-2.48,4.24-6.07,1-9.62,2.33-21.44,10.59-28.11,0,5-8.51,42.81,4.23,37.74,4.63-1.83,3.65-14.51,4.18-18.88,1.08-8.94,1.39-18.54,9.49-24.21-1.58,15.7-8.61,34.4-6.86,50.23.55,4.91,3.81,10.37,9.29,9.79,2.71-.29,10.09-7.14,6.75-9.48-2.2,1.21-4.28,3.32-6.19,5,0-11.61,2.92-23.07,4.73-34.47C140.68,131.27,145.61,115.22,141.47,111.76Zm-61.95,22c.13-2.68,2.13-18.73,5-18,3.25.84,1.25,11.31.32,13.25C84.76,129.31,79.39,136.58,79.52,133.8Z"/><path class="cls-77" d="M214.51,102.69c-.09-4.86.31-8.22,6.19-8.62,4.38-.29,6.13,1.14,6.85,5.06.85,4.68-4.31,11.85-6.91,12.2C218.79,111.58,214.6,106.83,214.51,102.69Z"/><path class="cls-77" d="M254.56,117.22c-3.66-4-6.14-3.28-10.7-1.85-5.42,1.7-8.48,3.85-12.18,8.69a55.28,55.28,0,0,0-9.13,18.44c-1.35,5.4.83,11.28-3.93,14.53a84.69,84.69,0,0,1,1.11-21.33c1.21-6.19,6.74-17.31-2.37-19.51-7.66-1.86-7.27,11.4-8.34,17.36-1.7,9.48-2.32,16.67-8.25,24.6-2.87-1.15,2.59-29.44,2.72-33.08.14-4.21.4-7.26-3.39-9.37-6.28-3.47-8.53,2.17-11.64,6.12-.65-4.1-6.83-9.24-10.65-5.83-2.07,1.85-1.15,7.48-2.65,9.83s-4.43,4.3-7,5.62c-1.63-5.81,3.35-11.23-.49-16.9-2.73-4-9.24-6.79-13.45-3.05-4.43,3.93-2.34,11.86-4.69,16.65-3,6-7.67,12.1-7.85,19.15-.23,8.88,8,17.54,16.22,10.69,4-3.34,5.4-9.35,6.87-14.14.51-1.67.81-5.63,2.23-7,1.21-1.19,5.09-1.44,6.93-2.86,4.67,6.15-8.3,29.91,3.6,31.05,8.74.84,5.37-17.33,6.31-23.89a39,39,0,0,1,9.76-20.39c1.9,3.36-1.5,13.4-1.93,17.22-.78,7-2.59,16-1.27,23,.8,4.24,3.74,10.09,9.31,6.59,3-1.88,6.81-13.05,8.55-16.19.58,5.16,1,11.61,7.43,12.43,5.9.76,4.25-3,6.42-6.28,4.73,3.17,7.67,9.24,14.61,4.9,1.42-.89,8.27-12.52,6.55-13.25-3.35-1.42-11.52,17.51-12.37,4.74-.59-8.93,6.62-20.36,12-27C248.88,143,258.27,121.29,254.56,117.22Zm-96.55-4c1.68-2.46,6,2.49,7,3.84-2.48.79-5.38.81-7.94,1.41A10.34,10.34,0,0,1,158,113.24Zm4,24.43c-2.32,6.22-4.54,13.4-9.58,18-3.24-3.7.39-11,2.11-14.77.72-1.56,2.5-6.53,4-6.88C160.38,133.64,162.64,136.08,162.05,137.67Zm1.65-6.18c-4.23-2.58-.33-5.13,1.68-8.42C165.68,124.19,164.62,129.44,163.7,131.49Z"/></g></g></svg>